# AST/ASF file generated using VICON BodyLanguage
# -----------------------------------------------
:version 1.10
:name VICON
:units
  mass 1.0
  length 0.45
  angle deg
:documentation
   .ast/.asf automatically generated from VICON data using
   VICON BodyBuilder and BodyLanguage model FoxedUp or BRILLIANT.MOD
:root
   order TX TY TZ RX RY RZ
   axis XYZ
   position 0 0 0  
   orientation 0 0 0 
:bonedata
  begin
     id 1 
     name lhipjoint
     direction 0.623415 -0.642378 0.445763 
     length 2.49859 
     axis 0 0 0  XYZ
  end
  begin
     id 2 
     name lfemur
     direction 0.34202 -0.939693 0  
     length 6.69689  
     axis 0 0 20  XYZ
    dof rx ry rz
    limits (-160.0 20.0)
           (-70.0 70.0)
           (-60.0 70.0)
  end
  begin
     id 3 
     name ltibia
     direction 0.34202 -0.939693 0   
     length 7.37574   
     axis 0 0 20   XYZ
    dof rx
    limits (-10.0 170.0)
  end
  begin
     id 4 
     name lfoot
     direction 0.084323 -0.231675 0.969132   
     length 2.09111   
     axis -90 7.62852e-016 20   XYZ
    dof rx rz
    limits (-45.0 90.0)
           (-70.0 20.0)
  end
  begin
     id 5 
     name ltoes
     direction 1.5357e-011 -4.21957e-011 1   
     length 1.04989   
     axis -90 7.62852e-016 20   XYZ
    dof rx
    limits (-90.0 20.0)
  end
  begin
     id 6 
     name rhipjoint
     direction -0.605402 -0.653903 0.45376   
     length 2.45455  
     axis 0 0 0  XYZ 
  end
  begin
     id 7 
     name rfemur
     direction -0.34202 -0.939693 0   
     length 6.64523   
     axis 0 0 -20   XYZ
    dof rx ry rz
    limits (-160.0 20.0)
           (-70.0 70.0)
           (-70.0 60.0)
  end
  begin
     id 8 
     name rtibia
     direction -0.34202 -0.939693 0   
     length 7.3339   
     axis 0 0 -20   XYZ
    dof rx
    limits (-10.0 170.0)
 end
 begin
     id 9 
     name rfoot
     direction -0.120854 -0.332043 0.93549   
     length 2.23135  
     axis -90 -7.62852e-016 -20   XYZ
    dof rx rz
    limits (-45.0 90.0)
           (-20.0 70.0)
  end
  begin
     id 10 
     name rtoes
     direction -1.53563e-011 -4.21914e-011 1   
     length 1.10614   
     axis -90 -7.62852e-016 -20   XYZ
    dof rx
    limits (-90.0 20.0)
  end
  begin
     id 11 
     name lowerback
     direction 0.0319682 0.998615 -0.0417941   
     length 2.02718   
     axis 0 0 0   XYZ
    dof rx ry rz
    limits (-20.0 45.0)
           (-30.0 30.0)
           (-30.0 30.0)
  end
  begin
     id 12 
     name upperback
     direction 7.63181e-005 0.995808 0.0914691   
     length 1.97539   
     axis 0 0 0   XYZ
    dof rx ry rz
    limits (-20.0 45.0)
           (-30.0 30.0)
           (-30.0 30.0)
  end
  begin
     id 13 
     name thorax
     direction -0.016423 0.993627 0.111514   
     length 2.00349   
     axis 0 0 0   XYZ
    dof rx ry rz
    limits (-20.0 45.0)
           (-30.0 30.0)
           (-30.0 30.0)
  end
  begin
     id 14 
     name lowerneck
     direction -0.174763 0.981668 -0.0760716   
     length 1.71436   
     axis 0 0 0   XYZ
    dof rx ry rz
    limits (-20.0 45.0)
           (-30.0 30.0)
           (-30.0 30.0)
  end
  begin
     id 15 
     name upperneck
     direction 0.345458 0.934587 -0.0848868   
     length 1.72805   
     axis 0 0 0   XYZ
    dof rx ry rz
    limits (-20.0 45.0)
           (-30.0 30.0)
           (-30.0 30.0)
  end
  begin
     id 16
     name head
     direction 0.13001 0.989848 -0.0574291  
     length 1.767  
     axis 0 0 0   XYZ
    dof rx ry rz
    limits (-20.0 45.0)
           (-30.0 30.0)
           (-30.0 30.0)
  end
  begin
     id 17 
     name lclavicle
     direction 0.952951 0.290122 0.0878234  
     length 3.54654  
     axis 0 0 0   XYZ
    dof ry rz
    limits (-20.0 10.0)
           (0.0 20.0)
  end
  begin
     id 18 
     name lhumerus
     direction 1 -4.48957e-011 -4.56525e-028   
     length 5.19807   
     axis 180 -30 -90   XYZ
    dof rx ry rz
    limits (-60.0 90.0)
           (-90.0 90.0)
           (-90.0 90.0)
  end
  begin
     id 19
     name lradius
     direction 1 -4.48979e-011 -2.0317e-027   
     length 3.0937   
     axis 180 -30 -90   XYZ
    dof rx
    limits (-10.0 170.0)
  end
  begin
     id 20
     name lwrist
     direction 1 -4.48953e-011 -3.05809e-027   
     length 1.54685   
     axis 8.48514e-016 90 90   XYZ
    dof ry
    limits (-180.0 0.0)
 end
  begin
     id 21 
     name lhand
     direction 1 -4.48952e-011 -6.11639e-027   
     length 0.672632   
     axis 3.9013e-015 90 90   XYZ
    dof rx rz
    limits (-90.0 90.0)
           (-45.0 45.0)
  end
  begin
     id 22 
     name lfingers
     direction 1 -4.48925e-011 -1.22426e-026   
     length 0.542293   
     axis 7.80276e-015 90 90   XYZ
    dof rx
    limits (0.0 90.0)
  end
  begin
     id 23
     name lthumb
     direction 0.707107 -6.3486e-011 0.707107   
     length 0.778628   
     axis -90 45 5.37419e-014   XYZ
    dof rx rz
    limits (-45.0 45.0)
           (-45.0 45.0)
  end
  begin
     id 24 
     name rclavicle
     direction -0.960732 0.273675 -0.0457849   
     length 3.52079  
     axis 0 0 0   XYZ 
    dof ry rz
    limits (-10.0 20.0)
           (-20.0 0.0)
  end
  begin
     id 25 
     name rhumerus
     direction -1 -4.48976e-011 -1.63613e-027  
     length 5.45222   
     axis 180 30 90   XYZ
    dof rx ry rz
    limits (-90.0 60.0)
           (-90.0 90.0)
           (-90.0 90.0)
  end
  begin
     id 26 
     name rradius
     direction -1 -4.48957e-011 -7.00033e-028   
     length 3.01284   
     axis 180 30 90   XYZ
    dof rx
    limits (-10.0 170.0)
  end
  begin
     id 27 
     name rwrist
     direction -1 -4.48983e-011 -3.05543e-027   
     length 1.50642   
     axis 8.48514e-016 -90 -90   XYZ
    dof ry
    limits (-180.0 0.0)
  end
  begin
     id 28
     name rhand
     direction -1 -4.48984e-011 -6.11072e-027   
     length 0.622296   
     axis 3.9013e-015 -90 -90   XYZ
    dof rx rz
    limits (-90.0 90.0)
           (-45.0 45.0)
  end
  begin
     id 29
     name rfingers
     direction -1 -4.48865e-011 -1.22637e-026   
     length 0.501711   
     axis 7.80276e-015 -90 -90   XYZ
    dof rx
    limits (0.0 90.0)
  end
  begin
     id 30
     name rthumb
     direction -0.707107 -6.34932e-011 0.707107   
     length 0.72036   
     axis -90 -45 -5.37419e-014   XYZ
    dof rx rz
    limits (-45.0 45.0)
           (-45.0 45.0)
  end
:hierarchy
  begin
    root lhipjoint rhipjoint lowerback
    lhipjoint lfemur
    lfemur ltibia
    ltibia lfoot
    lfoot ltoes
    rhipjoint rfemur
    rfemur rtibia
    rtibia rfoot
    rfoot rtoes
    lowerback upperback
    upperback thorax
    thorax lowerneck lclavicle rclavicle
    lowerneck upperneck
    upperneck head
    lclavicle lhumerus
    lhumerus lradius
    lradius lwrist
    lwrist lhand lthumb
    lhand lfingers
    rclavicle rhumerus
    rhumerus rradius
    rradius rwrist
    rwrist rhand rthumb
    rhand rfingers
  end

#!OML:ASF H:\Not Pregnant\Project 1\Capture day 1\Session 1\non-pregnant.ASF
:FULLY-SPECIFIED
:DEGREES
1
root 1.44553 15.9941 27.7913 136.998 -80.0234 -124.566
lowerback -13.4153 4.17691 7.85361
upperback -6.26972 4.28451 -0.918234
thorax 1.51107 1.86535 -4.74339
lowerneck 20.9139 -7.96518 -29.7795
upperneck -7.84253 -18.5067 43.8909
head 2.2302 -12.4899 23.6563
rclavicle 1.76918e-014 1.59028e-015
rhumerus -36.1515 7.28737 -97.1929
rradius 25.5298
rwrist 23.2878
rhand -7.76395 1.65986
rfingers 7.12502
rthumb 18.136 -27.5146
lclavicle 1.76918e-014 1.59028e-015
lhumerus -43.3214 -12.5861 93.8829
lradius 32.7444
lwrist 36.1228
lhand -16.2833 -13.1165
lfingers 7.12502
lthumb 9.92684 16.6294
rfemur -20.4982 -11.0644 31.8124
rtibia 24.0026
rfoot -18.4872 14.5031
rtoes -11.1009
lfemur -27.0212 7.87705 -15.4141
ltibia 34.429
lfoot -19.6901 -0.867136
ltoes -17.6234
2
root 1.44646 15.994 27.7915 136.951 -80.0789 -124.514
lowerback -13.4006 4.17004 7.78722
upperback -6.2618 4.28581 -0.922508
thorax 1.50818 1.86771 -4.71095
lowerneck 20.9191 -7.97638 -29.7692
upperneck -7.86359 -18.5097 43.8799
head 2.22183 -12.4895 23.6421
rclavicle 1.03368e-014 -4.77083e-015
rhumerus -36.1061 7.04793 -97.0707
rradius 25.4851
rwrist 23.5024
rhand -7.73015 1.74108
rfingers 7.12502
rthumb 18.1685 -27.4304
lclavicle 1.03368e-014 -4.77083e-015
lhumerus -43.2994 -12.6014 93.9035
lradius 32.7308
lwrist 36.1328
lhand -16.3372 -13.1817
lfingers 7.12502
lthumb 9.87485 16.5667
rfemur -20.5312 -11.0656 31.772
rtibia 24.0506
rfoot -18.5159 14.4277
rtoes -11.1723
lfemur -27.0277 7.86098 -15.4573
ltibia 34.413
lfoot -19.6915 -0.90174
ltoes -17.5337
3
root 1.44714 15.9936 27.7925 136.756 -80.1327 -124.302
lowerback -13.4015 4.14154 7.75099
upperback -6.25949 4.25235 -0.912205
thorax 1.50355 1.85171 -4.68526
lowerneck 20.9149 -7.95961 -29.7826
upperneck -7.85994 -18.4757 43.8476
head 2.20361 -12.4655 23.629
rclavicle 3.18055e-014 4.77083e-015
rhumerus -36.0868 7.00104 -97.0292
rradius 25.4423
rwrist 23.6145
rhand -7.78545 1.75671
rfingers 7.12502
rthumb 18.1153 -27.4197
lclavicle 3.18055e-014 4.77083e-015
lhumerus -43.2915 -12.5361 93.8849
lradius 32.7248
lwrist 36.0453
lhand -16.3151 -13.1577
lfingers 7.12502
lthumb 9.89613 16.5897
rfemur -20.5563 -11.0637 31.7513
rtibia 24.0618
rfoot -18.5405 14.3503
rtoes -11.3204
lfemur -27.0699 7.93254 -15.5033
ltibia 34.4141
lfoot -19.715 -1.02971
ltoes -17.6057
4
root 1.44798 15.9942 27.7943 136.331 -80.1603 -123.852
lowerback -13.3943 4.14553 7.78412
upperback -6.25732 4.25519 -0.924021
thorax 1.50515 1.85289 -4.71616
lowerneck 20.9173 -7.96125 -29.8006
upperneck -7.84952 -18.4897 43.8646
head 2.21832 -12.4754 23.6454
rclavicle 1.35174e-014 1.35174e-014
rhumerus -36.033 6.80187 -96.9421
rradius 25.388
rwrist 23.7793
rhand -7.77004 1.80832
rfingers 7.12502
rthumb 18.1301 -27.3667
lclavicle 1.35174e-014 1.35174e-014
lhumerus -43.2748 -12.5748 93.8869
lradius 32.7257
lwrist 36.0621
lhand -16.3621 -13.1197
lfingers 7.12502
lthumb 9.8508 16.6298
rfemur -20.5894 -11.0537 31.7748
rtibia 24.0763
rfoot -18.5182 14.2904
rtoes -11.1914
lfemur -27.113 7.86234 -15.4741
ltibia 34.4151
lfoot -19.6998 -1.05594
ltoes -17.5409
5
root 1.44872 15.9943 27.7956 136.012 -80.1943 -123.513
lowerback -13.3876 4.14138 7.789
upperback -6.25495 4.25036 -0.929116
thorax 1.50407 1.85065 -4.72536
lowerneck 20.9256 -7.96037 -29.8098
upperneck -7.85023 -18.4905 43.8645
head 2.21829 -12.4761 23.6493
rclavicle 2.98177e-015 3.18055e-015
rhumerus -36.004 6.69276 -96.887
rradius 25.3581
rwrist 23.8797
rhand -7.76441 1.85136
rfingers 7.12502
rthumb 18.1355 -27.3232
lclavicle 2.98177e-015 3.18055e-015
lhumerus -43.2621 -12.5863 93.8867
lradius 32.7228
lwrist 36.049
lhand -16.3934 -13.1023
lfingers 7.12502
lthumb 9.82067 16.6487
rfemur -20.6145 -11.0637 31.7841
rtibia 24.0828
rfoot -18.5134 14.2479
rtoes -11.1563
lfemur -27.155 7.86063 -15.4746
ltibia 34.4228
lfoot -19.7084 -1.11984
ltoes -17.5503
6
root 1.44943 15.9941 27.7967 135.654 -80.2212 -123.133
lowerback -13.3788 4.14009 7.80506
upperback -6.25402 4.24817 -0.9348
thorax 1.50134 1.8494 -4.74117
lowerneck 20.9376 -7.95957 -29.8182
upperneck -7.84937 -18.4937 43.8674
head 2.21944 -12.479 23.6555
rclavicle 1.37161e-014 -2.22639e-014
rhumerus -35.9873 6.63674 -96.8593
rradius 25.3455
rwrist 23.9215
rhand -7.75815 1.88225
rfingers 7.12502
rthumb 18.1415 -27.2917
lclavicle 1.37161e-014 -2.22639e-014
lhumerus -43.2498 -12.599 93.8824
lradius 32.7184
lwrist 36.0343
lhand -16.4132 -13.0803
lfingers 7.12502
lthumb 9.80149 16.6716
rfemur -20.6361 -11.0786 31.8039
rtibia 24.0816
rfoot -18.5031 14.2191
rtoes -11.0961
lfemur -27.201 7.87251 -15.4668
ltibia 34.4357
lfoot -19.7223 -1.19277
ltoes -17.5793
7
root 1.45012 15.9939 27.7976 135.292 -80.2444 -122.751
lowerback -13.3672 4.14156 7.82167
upperback -6.25407 4.24988 -0.941598
thorax 1.49676 1.84999 -4.758
lowerneck 20.9529 -7.96306 -29.8197
upperneck -7.85 -18.5023 43.8707
head 2.22114 -12.485 23.6586
rclavicle -9.83984e-015 2.70347e-014
rhumerus -35.9863 6.65039 -96.8663
rradius 25.357
rwrist 23.8861
rhand -7.74735 1.8978
rfingers 7.12502
rthumb 18.1519 -27.2752
lclavicle -9.83984e-015 2.70347e-014
lhumerus -43.2389 -12.6201 93.879
lradius 32.714
lwrist 36.0279
lhand -16.4296 -13.0607
lfingers 7.12502
lthumb 9.78574 16.6919
rfemur -20.6579 -11.0936 31.8276
rtibia 24.0828
rfoot -18.4941 14.192
rtoes -11.0276
lfemur -27.2482 7.89211 -15.4561
ltibia 34.4532
lfoot -19.7416 -1.26979
ltoes -17.6058
8
root 1.45088 15.9933 27.7979 134.906 -80.2552 -122.343
lowerback -13.3531 4.14444 7.84229
upperback -6.25583 4.25295 -0.942447
thorax 1.48901 1.85102 -4.77075
lowerneck 20.9677 -7.96832 -29.818
upperneck -7.84951 -18.5119 43.8706
head 2.22269 -12.4911 23.6572
rclavicle 3.61788e-014 3.57812e-014
rhumerus -36.002 6.73911 -96.9063
rradius 25.3902
rwrist 23.779
rhand -7.73895 1.89149
rfingers 7.12502
rthumb 18.16 -27.2808
lclavicle 3.61788e-014 3.57812e-014
lhumerus -43.2301 -12.6405 93.8765
lradius 32.7103
lwrist 36.0237
lhand -16.4386 -13.0451
lfingers 7.12502
lthumb 9.77703 16.7079
rfemur -20.676 -11.0882 31.8645
rtibia 24.0775
rfoot -18.484 14.1459
rtoes -10.9937
lfemur -27.3014 7.93222 -15.4326
ltibia 34.4786
lfoot -19.7683 -1.36357
ltoes -17.6132
9
root 1.45176 15.9927 27.7982 134.528 -80.2674 -121.939
lowerback -13.337 4.1471 7.85914
upperback -6.26086 4.25632 -0.943756
thorax 1.47661 1.85192 -4.78202
lowerneck 20.9803 -7.97379 -29.8123
upperneck -7.84405 -18.521 43.8679
head 2.22461 -12.4963 23.6524
rclavicle -1.3418e-014 -2.38542e-015
rhumerus -36.0268 6.8721 -96.9686
rradius 25.4325
rwrist 23.6303
rhand -7.737 1.87198
rfingers 7.12502
rthumb 18.1619 -27.3001
lclavicle -1.3418e-014 -2.38542e-015
lhumerus -43.2243 -12.6592 93.873
lradius 32.7072
lwrist 36.0186
lhand -16.4426 -13.0328
lfingers 7.12502
lthumb 9.77314 16.7205
rfemur -20.6927 -11.0523 31.8957
rtibia 24.0649
rfoot -18.4692 14.0622
rtoes -10.9999
lfemur -27.3637 7.97629 -15.413
ltibia 34.5106
lfoot -19.7986 -1.46685
ltoes -17.5886
10
root 1.45271 15.9921 27.7982 134.121 -80.2725 -121.505
lowerback -13.3179 4.14887 7.87725
upperback -6.267 4.25851 -0.940585
thorax 1.46096 1.85206 -4.78968
lowerneck 20.9893 -7.97798 -29.8073
upperneck -7.83318 -18.5288 43.8643
head 2.22793 -12.5003 23.6471
rclavicle 1.83876e-014 2.78299e-014
rhumerus -36.0546 7.01812 -97.0385
rradius 25.4761
rwrist 23.474
rhand -7.74028 1.83788
rfingers 7.12502
rthumb 18.1587 -27.3345
lclavicle 1.83876e-014 2.78299e-014
lhumerus -43.2203 -12.6762 93.869
lradius 32.7052
lwrist 36.0155
lhand -16.4512 -13.029
lfingers 7.12502
lthumb 9.76482 16.7246
rfemur -20.7026 -10.9784 31.9333
rtibia 24.044
rfoot -18.4542 13.9267
rtoes -11.0843
lfemur -27.4316 8.02303 -15.3824
ltibia 34.5506
lfoot -19.8308 -1.58461
ltoes -17.5124
11
root 1.45374 15.9915 27.7981 133.698 -80.2766 -121.053
lowerback -13.297 4.14938 7.89546
upperback -6.27437 4.2591 -0.935338
thorax 1.44274 1.85126 -4.79558
lowerneck 20.9956 -7.9794 -29.8088
upperneck -7.81669 -18.5355 43.8622
head 2.234 -12.5038 23.6451
rclavicle 2.28602e-015 9.54166e-015
rhumerus -36.0743 7.12705 -97.0909
rradius 25.5046
rwrist 23.3648
rhand -7.74761 1.80197
rfingers 7.12502
rthumb 18.1517 -27.3711
lclavicle 2.28602e-015 9.54166e-015
lhumerus -43.2174 -12.6867 93.8636
lradius 32.7046
lwrist 36.0061
lhand -16.4716 -13.0327
lfingers 7.12502
lthumb 9.7452 16.7219
rfemur -20.7084 -10.8588 31.968
rtibia 24.0172
rfoot -18.4365 13.7322
rtoes -11.2397
lfemur -27.5057 8.06244 -15.3487
ltibia 34.5956
lfoot -19.8621 -1.70068
ltoes -17.4131
12
root 1.4548 15.9909 27.798 133.263 -80.2802 -120.59
lowerback -13.2736 4.14628 7.91296
upperback -6.2811 4.25517 -0.92648
thorax 1.42286 1.84823 -4.79815
lowerneck 20.9995 -7.97747 -29.8204
upperneck -7.79637 -18.5412 43.8617
head 2.24278 -12.5067 23.6481
rclavicle -2.18663e-015 1.51076e-014
rhumerus -36.0837 7.18846 -97.1194
rradius 25.5171
rwrist 23.3201
rhand -7.75928 1.76324
rfingers 7.12502
rthumb 18.1404 -27.4108
lclavicle -2.18663e-015 1.51076e-014
lhumerus -43.2134 -12.6811 93.8553
lradius 32.7045
lwrist 35.9907
lhand -16.4978 -13.0398
lfingers 7.12502
lthumb 9.71987 16.7159
rfemur -20.7118 -10.734 32.0034
rtibia 23.9882
rfoot -18.4186 13.5256
rtoes -11.4127
lfemur -27.5814 8.09855 -15.3128
ltibia 34.6438
lfoot -19.8917 -1.82258
ltoes -17.2849
13
root 1.45578 15.9903 27.7978 132.821 -80.2847 -120.121
lowerback -13.2488 4.14021 7.92554
upperback -6.28604 4.248 -0.914742
thorax 1.40318 1.8438 -4.79547
lowerneck 21.0027 -7.97477 -29.8365
upperneck -7.7757 -18.5464 43.8598
head 2.25196 -12.509 23.6511
rclavicle 5.31749e-014 1.90833e-014
rhumerus -36.0802 7.18845 -97.1164
rradius 25.5106
rwrist 23.3518
rhand -7.7704 1.73796
rfingers 7.12502
rthumb 18.1298 -27.4371
lclavicle 5.31749e-014 1.90833e-014
lhumerus -43.2062 -12.6589 93.8427
lradius 32.7031
lwrist 35.9686
lhand -16.5271 -13.0516
lfingers 7.12502
lthumb 9.69163 16.7054
rfemur -20.7141 -10.6052 32.0378
rtibia 23.9628
rfoot -18.4037 13.3074
rtoes -11.5961
lfemur -27.6553 8.13071 -15.2769
ltibia 34.6918
lfoot -19.9202 -1.94084
ltoes -17.1814
